<?xml version="1.0" encoding="utf-8"?>
<!-- Generator: Adobe Illustrator 25.2.3, SVG Export Plug-In . SVG Version: 6.00 Build 0)  -->
<svg version="1.1" id="Layer_1" xmlns="http://www.w3.org/2000/svg" xmlns:xlink="http://www.w3.org/1999/xlink" x="0px" y="0px"
	 viewBox="0 0 300 300" style="enable-background:new 0 0 300 300;" xml:space="preserve">
<style type="text/css">
	.st0{fill:#28493C;}
</style>
<g>
	<g>
		<g>
			<path class="st0" d="M179.4,105.3c0,0-19.2-10.2,3.1-21.4s24.1-23.5,24.1-23.5c7.7,2.6,6,12.6,6,12.6L179.4,105.3z"/>
		</g>
		<g>
			<path class="st0" d="M74.2,243.6c-1.2,0-2.5-0.2-3.7-0.5c-5.3-1.5-9.8-6.1-11.1-11.4c-1.3-4.9,0.2-9.9,4.1-13.7l72.4-70.5
				c16.9-17.2,30.8-22.9,41.9-27.5c7.3-3,13.1-5.4,18.2-10.3l25.2-24.5c4.6-4.5,12-4.4,16.5,0.2c2.2,2.2,3.4,5.2,3.3,8.3
				c0,3.1-1.3,6-3.5,8.2l-28.7,28c-5.1,5-11.5,7.1-18.2,9.4c-9.4,3.2-20.1,6.8-31.1,19.1l-3,3.3c-14.1,15.7-51.6,57.3-72.7,77.9
				C81,242.2,77.7,243.6,74.2,243.6z M229.3,89.8c-0.9,0-1.9,0.3-2.6,1l-25.2,24.5c-6.1,6-13.2,8.9-20.7,11.9
				c-11,4.5-23.5,9.6-39.3,25.8L69,223.6c-1.8,1.8-2.5,3.8-1.9,6c0.7,2.6,2.9,5,5.5,5.7c2,0.6,3.8,0.1,5.5-1.5l0,0
				c21-20.4,58.3-61.9,72.3-77.5l3-3.3c12.5-13.8,24.7-18,34.5-21.3c6.4-2.2,11.4-3.9,15.2-7.6l28.7-28c0.7-0.7,1.1-1.6,1.1-2.6
				s-0.4-1.9-1-2.6C231.3,90.2,230.3,89.8,229.3,89.8z"/>
		</g>
		<g>
			<polygon class="st0" points="192.5,118.1 174.4,106.6 214.3,67.8 226.8,85.8 222.7,88.6 213.6,75.5 182.4,105.8 195.2,113.9 			
				"/>
		</g>
		<g>
			
				<rect x="190" y="96.1" transform="matrix(0.6057 -0.7957 0.7957 0.6057 -8.1181 194.7848)" class="st0" width="5" height="18.9"/>
		</g>
		<g>
			
				<rect x="203.4" y="83.2" transform="matrix(0.7164 -0.6977 0.6977 0.7164 -5.8899 169.7665)" class="st0" width="5" height="17.8"/>
		</g>
		<g>
			
				<rect x="210.6" y="76.7" transform="matrix(0.7399 -0.6727 0.6727 0.7399 -2.2628 165.6389)" class="st0" width="5" height="18.1"/>
		</g>
		<g>
			
				<rect x="196.7" y="90.2" transform="matrix(0.6781 -0.7349 0.7349 0.6781 -8.5575 178.2031)" class="st0" width="5" height="17.4"/>
		</g>
		<g>
			
				<rect x="119.3" y="168.9" transform="matrix(0.6556 -0.7551 0.7551 0.6556 -92.1561 154.469)" class="st0" width="8" height="18.7"/>
		</g>
		<g>
			
				<rect x="138.6" y="149.9" transform="matrix(0.7067 -0.7075 0.7075 0.7067 -70.2227 147.36)" class="st0" width="8" height="17"/>
		</g>
	</g>
</g>
</svg>
