<?xml version="1.0" encoding="utf-8"?>
<!-- Generator: Adobe Illustrator 25.2.3, SVG Export Plug-In . SVG Version: 6.00 Build 0)  -->
<svg version="1.1" id="Layer_1" xmlns="http://www.w3.org/2000/svg" xmlns:xlink="http://www.w3.org/1999/xlink" x="0px" y="0px"
	 viewBox="0 0 300 300" style="enable-background:new 0 0 300 300;" xml:space="preserve">
<style type="text/css">
	.st0{fill:#28493C;}
</style>
<g>
	<path class="st0" d="M90.9,218.6c-2.2,0-4-1.8-4-4v-28.1c-8.5-4-30.9-20.8-33.1-89c-0.2-5.9,2.7-11.3,7.8-14.4s11.2-3.2,16.4-0.4
		c15.9,8.8,37.8,23.9,51.6,45.7c1.2,1.9,0.6,4.3-1.2,5.5c-1.9,1.2-4.3,0.6-5.5-1.2c-13-20.4-33.7-34.7-48.7-43
		c-2.6-1.5-5.8-1.4-8.3,0.2c-2.6,1.6-4.1,4.3-4,7.4c2.4,75.3,29.6,82.4,29.9,82.5c1.9,0.4,3.2,2,3.2,3.9v30.9
		C94.9,216.8,93.1,218.6,90.9,218.6z"/>
</g>
<g>
	<path class="st0" d="M192.8,144.7c-0.8,0-1.6-0.2-2.3-0.7c-10.3-7.4-25.2-11.6-40.7-11.6c-13.4,0-26.3,3.1-36.3,8.8
		c-1.9,1.1-4.4,0.4-5.5-1.5s-0.4-4.4,1.5-5.5c11.2-6.3,25.5-9.8,40.2-9.8c17.2,0,33.7,4.8,45.4,13.1c1.8,1.3,2.2,3.8,0.9,5.6
		C195.3,144.1,194,144.7,192.8,144.7z"/>
</g>
<g>
	<path class="st0" d="M209.1,217.6c-2.2,0-4-1.8-4-4v-29.9c0-1.9,1.4-3.6,3.2-3.9c0.2,0,27.4-7.2,29.8-82.5c0.1-3-1.4-5.8-4-7.4
		s-5.7-1.7-8.3-0.2c-15.1,8.3-35.8,22.6-48.7,43c-1.2,1.9-3.7,2.4-5.5,1.2c-1.9-1.2-2.4-3.7-1.2-5.5c13.9-21.9,35.7-36.9,51.6-45.7
		c5.2-2.9,11.3-2.7,16.4,0.4c5.1,3.1,8,8.5,7.8,14.4c-2.2,68.2-24.5,85-33.1,89v27.1C213.1,215.8,211.3,217.6,209.1,217.6z"/>
</g>
<g>
	<path class="st0" d="M136,217.8c-2.8-3.1-2-8.1,1.7-10.1c2.8-1.5,6.7-2.8,12.3-2.8c5.2,0,8.8,1.1,11.2,2.5c3.5,2,4.1,6.8,1.5,9.8
		c-3.1,3.6-8.1,8.1-13.6,8.1C143.9,225.3,139.1,221.3,136,217.8z"/>
</g>
<path class="st0" d="M131.9,170.7c-2.8,0-5.1-2.3-5.1-5.1c0-0.8,0.2-1.6,0.6-2.3c-0.3-0.1-0.7-0.1-1.1-0.1
	c-5.9,0-10.7,7.5-10.7,16.7s4.8,16.7,10.7,16.7c5.9,0,10.7-7.4,10.7-16.6c0-3.8-0.8-7.3-2.2-10.1
	C133.9,170.4,132.9,170.7,131.9,170.7z"/>
<path class="st0" d="M176.2,170.7c-2.8,0-5.1-2.3-5.1-5.1c0-0.8,0.2-1.6,0.6-2.3c-0.3-0.1-0.7-0.1-1.1-0.1
	c-5.9,0-10.7,7.5-10.7,16.7s4.8,16.7,10.7,16.7s10.7-7.5,10.7-16.7c0-3.8-0.8-7.3-2.2-10.1C178.3,170.4,177.3,170.7,176.2,170.7z"/>
</svg>
