<?xml version="1.0" encoding="utf-8"?>
<!-- Generator: Adobe Illustrator 25.2.3, SVG Export Plug-In . SVG Version: 6.00 Build 0)  -->
<svg version="1.1" id="Layer_1" xmlns="http://www.w3.org/2000/svg" xmlns:xlink="http://www.w3.org/1999/xlink" x="0px" y="0px"
	 viewBox="0 0 300 300" style="enable-background:new 0 0 300 300;" xml:space="preserve">
<style type="text/css">
	.st0{fill:#28493C;}
</style>
<g>
	<path class="st0" d="M230.7,231.8H69.3c-13.3,0-24.1-10.8-24.1-24.1V100c0-13.3,10.8-24.1,24.1-24.1h161.3
		c13.3,0,24.1,10.8,24.1,24.1v107.7C254.8,221,244,231.8,230.7,231.8z M69.3,83.9c-8.9,0-16.1,7.2-16.1,16.1v107.7
		c0,8.9,7.2,16.1,16.1,16.1h161.3c8.9,0,16.1-7.2,16.1-16.1V100c0-8.9-7.2-16.1-16.1-16.1H69.3z"/>
</g>
<g>
	<path class="st0" d="M230.7,211.8H69l-0.3-0.1c-1.4-0.2-2.6-1.2-3.1-2.5l-0.3-0.7V99.6l0.1-0.3c0.2-1.4,1.2-2.6,2.5-3.1l0.8-0.3
		h162.6l0.3,0.1c1.4,0.2,2.6,1.2,3.1,2.5l0.3,0.7v108.9l-0.1,0.3c-0.2,1.4-1.2,2.6-2.5,3.1l-0.6,0.3H230.7z M73.2,203.8h153.6v-100
		H73.2V203.8z"/>
</g>
<g>
	<path class="st0" d="M189,82.9h-8V71.7c0-5.5-4.5-9.9-9.9-9.9h-42.2c-5.5,0-9.9,4.5-9.9,9.9v11.2h-8V71.7c0-9.9,8-17.9,17.9-17.9
		h42.2c9.9,0,17.9,8,17.9,17.9V82.9z"/>
</g>
<g>
	<path class="st0" d="M179.3,142h-17.4v-17.4c0-2.7-2.2-4.9-4.9-4.9h-14c-2.7,0-4.9,2.2-4.9,4.9V142h-17.4c-2.7,0-4.9,2.2-4.9,4.9
		v13.9c0,2.7,2.2,4.9,4.9,4.9h17.4v17.4c0,2.7,2.2,4.9,4.9,4.9h14c2.7,0,4.9-2.2,4.9-4.9v-17.4h17.4c2.7,0,4.9-2.2,4.9-4.9v-13.9
		C184.2,144.2,182,142,179.3,142z"/>
</g>
</svg>
