<?xml version="1.0" encoding="utf-8"?>
<!-- Generator: Adobe Illustrator 25.2.3, SVG Export Plug-In . SVG Version: 6.00 Build 0)  -->
<svg version="1.1" id="Layer_1" xmlns="http://www.w3.org/2000/svg" xmlns:xlink="http://www.w3.org/1999/xlink" x="0px" y="0px"
	 viewBox="0 0 300 300" style="enable-background:new 0 0 300 300;" xml:space="preserve">
<style type="text/css">
	.st0{fill:#28493C;}
</style>
<g>
	<g>
		<path class="st0" d="M197.6,243.3h-94.5c-10.9,0-19.7-8.8-19.7-19.7V93c0-10.9,8.8-19.7,19.7-19.7h94.5c10.9,0,19.7,8.8,19.7,19.7
			v130.7C217.3,234.5,208.4,243.3,197.6,243.3z M103.1,81.3c-6.5,0-11.7,5.3-11.7,11.7v130.7c0,6.5,5.3,11.7,11.7,11.7h94.5
			c6.5,0,11.7-5.3,11.7-11.7V93c0-6.5-5.3-11.7-11.7-11.7H103.1z"/>
	</g>
	<g>
		<path class="st0" d="M103.1,81.3c-1.9,0-3.5-1.3-3.9-3.2c-0.4-2.2,0.9-4.3,3.1-4.7l79-16.2c6.1-1.2,12.3,0.3,17.1,4.2
			s7.6,9.7,7.6,15.9c0,2.2-1.8,4-4,4s-4-1.8-4-4c0-3.8-1.7-7.3-4.6-9.7c-2.9-2.4-6.8-3.3-10.5-2.6l-79,16.2
			C103.6,81.2,103.3,81.3,103.1,81.3z"/>
	</g>
	<g>
		<path class="st0" d="M103.1,81.3c-1.9,0-3.5-1.3-3.9-3.2c-0.4-2.2,0.9-4.3,3.1-4.7l79-16.2c6.1-1.2,12.3,0.3,17.1,4.2
			s7.6,9.7,7.6,15.9c0,2.2-1.8,4-4,4s-4-1.8-4-4c0-3.8-1.7-7.3-4.6-9.7c-2.9-2.4-6.8-3.3-10.5-2.6l-79,16.2
			C103.6,81.2,103.3,81.3,103.1,81.3z"/>
	</g>
	<g>
		<g>
			<path class="st0" d="M147.5,139.2v-18.9c-3.1,0.2-6.2,0.8-9.1,1.8c-1,5-1.7,10.7-2.3,17.1H147.5z"/>
		</g>
		<g>
			<path class="st0" d="M164.6,160.2h-12.1v11h11.7C164.4,167.7,164.5,164.1,164.6,160.2z"/>
		</g>
		<g>
			<path class="st0" d="M147.5,144.2h-11.7c-0.2,3.5-0.3,7.2-0.4,11h12.1L147.5,144.2L147.5,144.2z"/>
		</g>
		<g>
			<path class="st0" d="M169.6,155.2h18.7c-0.3-3.9-1.2-7.6-2.6-11h-16.5C169.4,147.8,169.5,151.5,169.6,155.2z"/>
		</g>
		<g>
			<path class="st0" d="M168.9,139.2h14.4c-3.8-6.5-9.4-11.8-16.2-15.1C167.8,128.8,168.4,133.9,168.9,139.2z"/>
		</g>
		<g>
			<path class="st0" d="M147.5,176.2h-11.3c0.6,6.9,1.5,13,2.5,18.3c2.8,0.9,5.7,1.5,8.8,1.7V176.2z"/>
		</g>
		<g>
			<path class="st0" d="M186.1,171.2c1.3-3.5,2-7.2,2.2-11h-18.7c0,3.7-0.2,7.4-0.4,11H186.1z"/>
		</g>
		<g>
			<path class="st0" d="M135.8,171.2h11.7v-11h-12.1C135.5,164.1,135.6,167.7,135.8,171.2z"/>
		</g>
		<g>
			<path class="st0" d="M130.8,144.2H115c-1.4,3.4-2.3,7.1-2.6,11h18C130.5,151.5,130.6,147.8,130.8,144.2z"/>
		</g>
		<g>
			<path class="st0" d="M130.4,160.2h-18.1c0.2,3.8,1,7.5,2.2,11h16.3C130.6,167.6,130.5,164,130.4,160.2z"/>
		</g>
		<g>
			<path class="st0" d="M152.5,176.2v20c3-0.2,5.9-0.7,8.7-1.5c1.1-5.4,2-11.5,2.6-18.5H152.5z"/>
		</g>
		<g>
			<path class="st0" d="M168.8,176.2c-0.5,5.8-1.2,11.3-2.1,16.4c7.3-3.5,13.3-9.3,17.2-16.4H168.8z"/>
		</g>
		<g>
			<path class="st0" d="M131.2,176.2h-14.4c3.7,6.9,9.5,12.5,16.5,16C132.3,187.3,131.6,181.9,131.2,176.2z"/>
		</g>
		<g>
			<path class="st0" d="M131.1,139.2c0.4-5.2,1-10.1,1.8-14.8c-6.5,3.3-11.9,8.5-15.5,14.8H131.1z"/>
		</g>
		<g>
			<path class="st0" d="M152.5,144.2v11h12.1c0-3.8-0.2-7.5-0.4-11H152.5z"/>
		</g>
		<g>
			<path class="st0" d="M152.5,139.2h11.3c-0.5-6.4-1.3-12.2-2.3-17.3c-2.9-0.9-5.9-1.4-9-1.6V139.2z"/>
		</g>
	</g>
</g>
</svg>
