<?xml version="1.0" encoding="utf-8"?>
<!-- Generator: Adobe Illustrator 25.2.3, SVG Export Plug-In . SVG Version: 6.00 Build 0)  -->
<svg version="1.1" id="Layer_1" xmlns="http://www.w3.org/2000/svg" xmlns:xlink="http://www.w3.org/1999/xlink" x="0px" y="0px"
	 viewBox="0 0 300 300" style="enable-background:new 0 0 300 300;" xml:space="preserve">
<style type="text/css">
	.st0{fill:#28493C;}
</style>
<g>
	<g>
		<g>
			<g>
				<path class="st0" d="M87.9,169.2c-1.8,0-3.5,0-5.2-0.1c-21.6-0.6-33.4-5.2-35.2-13.6c-1.8-8.4,7.2-17.4,26.6-26.7
					c17.3-8.3,41.1-15.9,66.8-21.3s50.5-8.1,69.7-7.6c21.6,0.6,33.4,5.2,35.2,13.6l0,0c1.8,8.4-7.2,17.4-26.6,26.7
					c-17.3,8.3-41.1,15.9-66.8,21.3C129,166.5,106.3,169.2,87.9,169.2z M205.2,107.8c-15.7,0-36.7,2-62.5,7.5
					c-25.1,5.3-48.2,12.7-65,20.7C59,145,55,151.6,55.4,153.8c0.5,2.2,6.9,6.7,27.6,7.3c18.6,0.6,42.7-2.1,67.8-7.4
					c60-12.7,88.7-31.9,87.3-38.6C237.3,111.4,225.9,107.8,205.2,107.8z"/>
			</g>
			<g>
				<path class="st0" d="M94.4,200.1c-1.8,0-3.5,0-5.2-0.1c-21.6-0.6-33.4-5.2-35.2-13.6l-6.5-30.9l7.8-1.7l6.5,30.9
					c1.4,6.7,35.4,12.6,95.4-0.1c25.1-5.3,48.2-12.7,65-20.7c18.7-9,22.7-15.6,22.3-17.8l-6.5-30.9l7.8-1.7l6.5,30.9
					c1.8,8.4-7.2,17.4-26.6,26.7c-17.3,8.3-41.1,15.9-66.8,21.3C135.5,197.5,112.8,200.1,94.4,200.1z"/>
			</g>
			<g>
				<path class="st0" d="M81.2,167.9c-1.5,0-2.9-0.8-3.6-2.2c-1-2-0.2-4.4,1.8-5.4c17.4-8.6,41.6-16.3,68.1-21.9
					c27.3-5.8,54.1-8.5,73.5-7.4c2.2,0.1,3.9,2,3.8,4.2c-0.1,2.2-2,3.9-4.2,3.8c-18.7-1-44.8,1.6-71.4,7.3
					c-25.8,5.5-49.3,13-66.2,21.3C82.4,167.8,81.8,167.9,81.2,167.9z"/>
			</g>
			<g>
				<path class="st0" d="M170.2,189.3c-3.7,0-7.3-1-10.5-3c-4.6-2.9-7.7-7.4-8.9-12.7c-2.2-10.4,4.2-20.6,14.5-23.3
					c6.1-1.6,11.1-2.9,11.2-3l2.1,7.7c-0.1,0-5.2,1.4-11.3,3c-6.2,1.6-9.9,7.7-8.6,13.9c0.7,3.2,2.5,5.8,5.3,7.5
					c2.7,1.7,6,2.2,9.1,1.4c5.2-1.3,9.2-2.4,12-3.2l2.3,7.6c-2.9,0.9-7.1,2-12.4,3.3C173.5,189.1,171.8,189.3,170.2,189.3z"/>
			</g>
		</g>
		<g>
			
				<ellipse transform="matrix(0.9783 -0.2072 0.2072 0.9783 -39.3781 25.0295)" class="st0" cx="99.8" cy="200.5" rx="15.1" ry="19.9"/>
		</g>
	</g>
	<g>
		<circle class="st0" cx="175.4" cy="167.9" r="3"/>
	</g>
	<g>
		<circle class="st0" cx="190.9" cy="163.6" r="3"/>
	</g>
	<g>
		<circle class="st0" cx="205.2" cy="158.7" r="3"/>
	</g>
</g>
</svg>
