<?xml version="1.0" encoding="utf-8"?>
<!-- Generator: Adobe Illustrator 25.2.3, SVG Export Plug-In . SVG Version: 6.00 Build 0)  -->
<svg version="1.1" id="Layer_1" xmlns="http://www.w3.org/2000/svg" xmlns:xlink="http://www.w3.org/1999/xlink" x="0px" y="0px"
	 viewBox="0 0 300 300" style="enable-background:new 0 0 300 300;" xml:space="preserve">
<style type="text/css">
	.st0{fill:#28493C;}
</style>
<g>
	<g>
		<g>
			<g>
				<path class="st0" d="M150.3,184.7c-19,0-34.5-15.5-34.5-34.5s15.5-34.5,34.5-34.5s34.5,15.5,34.5,34.5S169.3,184.7,150.3,184.7z
					 M150.3,123.9c-14.6,0-26.4,11.8-26.4,26.4s11.8,26.4,26.4,26.4s26.4-11.8,26.4-26.4C176.7,135.7,164.8,123.9,150.3,123.9z"/>
			</g>
		</g>
		<g>
			<g>
				<path class="st0" d="M141.1,125.3c-1.9,0-3.6-1.4-4-3.3l-2.7-15.7l-15.6,2.2c-2.2,0.3-4.2-1.2-4.6-3.4c-0.3-2.2,1.2-4.2,3.4-4.6
					l19.4-2.7c2.2-0.3,4.2,1.2,4.5,3.3l3.4,19.5c0.4,2.2-1.1,4.3-3.3,4.7C141.5,125.3,141.3,125.3,141.1,125.3z"/>
			</g>
		</g>
		<g>
			<g>
				<path class="st0" d="M98.6,138.4c-1.2,0-2.3-0.5-3.1-1.5c-1.4-1.7-1.2-4.3,0.6-5.7l14.7-12c1.6-1.3,3.9-1.2,5.4,0.2l11.6,11.1
					c1.6,1.5,1.7,4.1,0.1,5.7c-1.5,1.6-4.1,1.7-5.7,0.1l-9-8.7l-11.9,9.7C100.4,138.1,99.5,138.4,98.6,138.4z"/>
			</g>
		</g>
		<g>
			<g>
				<path class="st0" d="M90.2,173.1c-0.8,0-1.7-0.3-2.4-0.8c-1.8-1.3-2.2-3.8-0.9-5.6l10.3-14c0.8-1,2-1.6,3.3-1.6h19.3
					c2.2,0,4,1.8,4,4s-1.8,4-4,4h-17.3l-9.1,12.4C92.6,172.5,91.4,173.1,90.2,173.1z"/>
			</g>
		</g>
		<g>
			<g>
				<path class="st0" d="M178.2,211.1c-0.3,0-0.5,0-0.8-0.1c-2.2-0.4-3.6-2.5-3.2-4.7l3.1-15.9l-12.2-12.6c-1.6-1.6-1.5-4.2,0.1-5.7
					c1.6-1.6,4.2-1.5,5.7,0.1l13.7,14.1c0.9,0.9,1.3,2.3,1.1,3.6l-3.5,18C181.7,209.8,180.1,211.1,178.2,211.1z"/>
			</g>
		</g>
		<g>
			<g>
				<path class="st0" d="M197.6,179c-2.1,0-3.9-1.7-4-3.8l-0.8-15.4h-12c-2.2,0-4-1.8-4-4s1.8-4,4-4h15.8c2.1,0,3.9,1.7,4,3.8
					l1,19.2c0.1,2.2-1.6,4.1-3.8,4.2C197.7,179,197.6,179,197.6,179z"/>
			</g>
		</g>
		<g>
			<g>
				<path class="st0" d="M204,144.6c-1.2,0-2.4-0.5-3.1-1.5l-8.6-10.7l-12.1,8.3c-1.8,1.3-4.4,0.8-5.6-1.1c-1.3-1.8-0.8-4.4,1.1-5.6
					l15.2-10.4c1.7-1.2,4.1-0.8,5.4,0.8l10.9,13.6c1.4,1.7,1.1,4.3-0.6,5.7C205.8,144.3,204.9,144.6,204,144.6z"/>
			</g>
		</g>
		<g>
			<g>
				<path class="st0" d="M172.9,132.4c-0.9,0-1.8-0.3-2.5-0.9c-1.7-1.4-2-3.9-0.6-5.7c1.1-1.3,1.7-3,1.9-4.7c0.4-4.8-3.2-9-7.9-9.4
					c-4.8-0.4-9,3.2-9.4,7.9c-0.2,2.2-2.1,3.9-4.4,3.7c-2.2-0.2-3.9-2.1-3.7-4.4c0.8-9.2,8.9-16.1,18.1-15.3
					c9.2,0.8,16.1,8.9,15.3,18.1c-0.3,3.4-1.5,6.5-3.6,9.1C175.2,131.9,174.1,132.4,172.9,132.4z"/>
			</g>
		</g>
	</g>
	<g>
		<g>
			<path class="st0" d="M150,239.6c-49.4,0-89.6-40.2-89.6-89.6s40.2-89.6,89.6-89.6s89.6,40.2,89.6,89.6S199.4,239.6,150,239.6z
				 M150,68.5c-44.9,0-81.5,36.6-81.5,81.5s36.6,81.5,81.5,81.5s81.5-36.6,81.5-81.5S194.9,68.5,150,68.5z"/>
		</g>
	</g>
	<g>
		<g>
			<path class="st0" d="M93,217.8c-1,0-2-0.4-2.7-1.1c-1.6-1.5-1.7-4.1-0.2-5.7L206.5,85.8c1.5-1.6,4.1-1.7,5.7-0.2
				c1.6,1.5,1.7,4.1,0.2,5.7L96,216.5C95.2,217.4,94.1,217.8,93,217.8z"/>
		</g>
	</g>
</g>
</svg>
