<?xml version="1.0" encoding="utf-8"?>
<!-- Generator: Adobe Illustrator 25.2.3, SVG Export Plug-In . SVG Version: 6.00 Build 0)  -->
<svg version="1.1" id="Layer_1" xmlns="http://www.w3.org/2000/svg" xmlns:xlink="http://www.w3.org/1999/xlink" x="0px" y="0px"
	 viewBox="0 0 300 300" style="enable-background:new 0 0 300 300;" xml:space="preserve">
<style type="text/css">
	.st0{fill:#28493C;}
</style>
<g>
	<path class="st0" d="M150,231.8c-21.2,0-38-7-49.7-20.9c-11.4-13.5-17.9-32.9-19.2-57.8c-0.9-18.3,1.4-32.5,1.5-33.1
		c0.4-2.2,2.4-3.7,4.6-3.3c2.2,0.4,3.7,2.4,3.3,4.6c0,0.1-2.3,14.1-1.4,31.5c0.8,15.8,4.5,37.8,17.3,52.8
		c10.2,12,24.9,18.1,43.6,18.1c18.8,0,33.5-6.1,43.6-18.1c24.7-29.1,16-83.8,15.9-84.3c-0.4-2.2,1.1-4.2,3.3-4.6s4.2,1.1,4.6,3.3
		c0.1,0.6,2.4,14.8,1.5,33.1c-1.3,24.8-7.7,44.3-19.2,57.8C188,224.8,171.2,231.8,150,231.8z"/>
</g>
<g>
	<path class="st0" d="M225.8,204.6c-5.6,0-10.2-1.8-13.7-5.4c-6.3-6.5-6-16.6-5.9-17c0.1-2.2,1.9-3.9,4.2-3.8
		c2.2,0.1,3.9,1.9,3.8,4.1l0,0c0,0.1-0.2,7.1,3.7,11.2c1.9,2,4.5,2.9,7.9,2.9c16.1,0,21.8-18.4,21.8-34.2c0-20.8-8.7-43.2-23.2-59.7
		c-12.6-14.3-35.7-31.4-74.4-31.4s-61.8,17.1-74.4,31.4c-14.5,16.6-23.2,38.9-23.2,59.7c0,15.8,5.7,34.2,21.8,34.2
		c3.4,0,6-0.9,7.9-2.9c3.9-4,3.7-11.1,3.7-11.2c-0.1-2.2,1.7-4.1,3.9-4.1c2.2-0.1,4.1,1.6,4.1,3.8c0,0.4,0.3,10.5-5.9,17
		c-3.4,3.6-8,5.4-13.7,5.4c-18.1,0-29.8-16.6-29.8-42.2c0-22.7,9.4-47,25.2-65c13.7-15.6,38.7-34.2,80.4-34.2s66.8,18.6,80.4,34.2
		c15.8,18,25.2,42.3,25.2,65C255.6,188,243.9,204.6,225.8,204.6z"/>
</g>
<g>
	<path class="st0" d="M133.5,199.4c-10.6,0-19.2-8.6-19.2-19.2c0-2.2,1.8-4,4-4s4,1.8,4,4c0,6.2,5,11.2,11.2,11.2s11.2-5,11.2-11.2
		c0-2.2,1.8-4,4-4s4,1.8,4,4C152.7,190.8,144.1,199.4,133.5,199.4z"/>
</g>
<g>
	<path class="st0" d="M165.2,199.4c-10.6,0-19.2-8.6-19.2-19.2c0-2.2,1.8-4,4-4s4,1.8,4,4c0,6.2,5,11.2,11.2,11.2s11.2-5,11.2-11.2
		c0-2.2,1.8-4,4-4s4,1.8,4,4C184.4,190.8,175.8,199.4,165.2,199.4z"/>
</g>
<g>
	<path class="st0" d="M134.6,168.2c0,8.2,15.4,14,15.4,14s15.4-5.9,15.4-14C165.4,158.2,134.6,157.7,134.6,168.2z"/>
</g>
<path class="st0" d="M133.9,119.4c-2.8,0-5.1-2.3-5.1-5.1c0-0.8,0.2-1.6,0.6-2.3c-0.3-0.1-0.7-0.1-1.1-0.1
	c-5.9,0-10.7,7.5-10.7,16.7s4.8,16.7,10.7,16.7s10.7-7.5,10.7-16.7c0-3.8-0.8-7.3-2.2-10.1C135.9,119,135,119.4,133.9,119.4z"/>
<path class="st0" d="M179.4,118.2c-0.9,0.7-2,1.2-3.2,1.2c-2.8,0-5.1-2.3-5.1-5.1c0-0.8,0.2-1.6,0.6-2.3c-0.2,0-0.4,0-0.6,0
	c-5.9,0-10.7,7.5-10.7,16.7s4.8,16.7,10.7,16.7s10.7-7.5,10.7-16.7C181.7,124.6,180.9,121,179.4,118.2z"/>
</svg>
