<?xml version="1.0" encoding="utf-8"?>
<!-- Generator: Adobe Illustrator 25.2.3, SVG Export Plug-In . SVG Version: 6.00 Build 0)  -->
<svg version="1.1" id="Layer_1" xmlns="http://www.w3.org/2000/svg" xmlns:xlink="http://www.w3.org/1999/xlink" x="0px" y="0px"
	 viewBox="0 0 300 300" style="enable-background:new 0 0 300 300;" xml:space="preserve">
<style type="text/css">
	.st0{fill:#28493C;}
</style>
<g>
	<path class="st0" d="M237.7,175.1c2.7-8.1,3.3-17,1.5-26c-1.7-8.5-4.6-17.1-8.2-24.9c-0.1-0.8-0.5-1.6-1.1-2.3
		c-4.6-9.4-10.3-17.3-15.9-21.8c-11.8-9.5-26.8-10.5-40.1-2.8c-0.2,0.1-0.4,0.2-0.6,0.3c-1.1,0.6-6.1,3.7-10.3,9.6
		c-4.1,5.7-8.3,15.2-5.5,28.4l-11.3,15.3l2.3-5.7c1.3-3.3,1.3-6.8-0.1-10.1c-1.4-3.3-3.9-5.8-7.2-7.1c-6.7-2.7-14.5,0.6-17.2,7.3
		l-2.5,6.3c-0.2-0.1-0.5-0.2-0.8-0.3c-3.3-0.9-6.7-1.4-10.1-1.4c-18.9,0-34.5,14.1-37,32.2c-12.1-1.5-20.7-10.8-25-27.1
		c-0.4-1.6-1.8-2.8-3.4-3c-1.6-0.2-3.2,0.6-4,2c-0.4,0.8-10.7,20,3.5,39.8c7.7,10.8,20.3,17.2,33.4,17.2c1.1,0,2.2,0,3.2,0
		c0.1,0,0.2,0,0.4-0.1c6.9,8.4,17.3,13.8,28.9,13.8h76c2.5,1.5,5.3,2.3,8.4,2.3h51.1c2.2,0,4-1.8,4-4c0-3.9-1-7.5-2.7-10.8h6.8
		c2.2,0,4-1.7,4-4C258.3,186.3,249.2,176.5,237.7,175.1z M209.1,106.2c4.9,3.9,9.4,10.5,13.2,18c-5.5,6.7-10.9,9.7-16,9
		c-11.3-1.7-21.3-20.3-25.6-30.5C190.4,98.2,200.6,99.4,209.1,106.2z M51.3,179.2c-5.2-7.3-6.3-14.5-5.9-20.1
		c4.9,9.8,13.3,19.6,28,21.1c0.4,4.6,1.5,8.9,3.4,12.9C66.8,192.6,57.3,187.5,51.3,179.2z M195.1,209c-4.7,0-8.5-3.8-8.5-8.5v-6.8
		c0-2.2-1.8-4-4-4c-2.2,0-4,1.8-4,4v6.8c0,2.2,0.4,4.3,1.2,6.2h-69c-16.2,0-29.4-13.2-29.4-29.4c0-16.2,13.2-29.4,29.4-29.4
		c2.7,0,5.2,0.4,7.8,1.1l-6.2,15.2c-0.8,2,0.2,4.4,2.2,5.2c2,0.8,4.4-0.2,5.2-2.2l11.7-28.9c1.1-2.7,4.1-4,6.8-2.9
		c1.2,0.5,2.3,1.5,2.8,2.8s0.5,2.7,0,4l-14,34.6c-3,7.3-11.4,10.9-18.8,7.9c-2-0.8-4.4,0.2-5.2,2.2c-0.8,2,0.2,4.4,2.2,5.2
		c2.8,1.1,5.6,1.6,8.4,1.6c8.9,0,17.3-5.2,20.9-13.9l7.5-18.5c1.5,2.2,11.8,17.1,29.6,14.3c17.9-2.9,33.2-25.5,33.8-26.5
		c1.2-1.8,0.7-4.3-1.1-5.5s-4.3-0.7-5.5,1.1c-3.8,5.7-16.4,21.1-28.4,23c-10.2,1.6-17.2-5.1-20.1-8.7l14.8-20.1c0.8-1,1-2.2,0.7-3.4
		c-3.8-15,3.3-24.2,8-28.4c1.5,3.4,3.8,8,6.7,12.9c7.7,12.7,16,19.7,24.6,21c0.9,0.1,1.9,0.2,2.8,0.2c6.2,0,12.2-3.1,17.9-9
		c2.5,6.3,4.5,12.7,5.6,18.4c2.1,10.3,0.5,20.7-4.6,29.1c-2.2,3.6-5,6.9-8.2,9.6c-0.1,0.1-0.3,0.3-0.4,0.4h-5.9c-2.2,0-4,1.8-4,4
		c0,2.2,1.8,4,4,4h14.5c7.1,0,13,4.8,14.8,11.3H195.1z M240.6,194.2c-3.2-2.4-7.1-3.9-11.2-4.4c1.5-1.8,2.9-3.8,4.2-5.8
		c0.2-0.4,0.4-0.8,0.7-1.1c0.2,0,0.5,0.1,0.7,0.1c7.1,0,13,4.8,14.8,11.3H240.6z"/>
	<path class="st0" d="M145.5,117.6c2.2,0,4-1.8,4-4V87c0-2.2-1.8-4-4-4s-4,1.8-4,4v26.6C141.5,115.8,143.3,117.6,145.5,117.6z"/>
	<path class="st0" d="M122.6,117.2c0.7,1.5,2.1,2.3,3.6,2.3c0.5,0,1.1-0.1,1.7-0.4c2-0.9,2.8-3.3,1.9-5.3l-13.5-28.5
		c-0.9-2-3.3-2.8-5.3-1.9c-2,0.9-2.8,3.3-1.9,5.3L122.6,117.2z"/>
	<path class="st0" d="M90,119.1l21.7,10.7c0.6,0.3,1.2,0.4,1.8,0.4c1.5,0,2.9-0.8,3.7-2.2c1-2,0.2-4.4-1.8-5.4l-21.8-10.7
		c-2-1-4.4-0.2-5.4,1.8S88,118.1,90,119.1z"/>
</g>
</svg>
