<?xml version="1.0" encoding="utf-8"?>
<!-- Generator: Adobe Illustrator 25.2.3, SVG Export Plug-In . SVG Version: 6.00 Build 0)  -->
<svg version="1.1" id="Layer_1" xmlns="http://www.w3.org/2000/svg" xmlns:xlink="http://www.w3.org/1999/xlink" x="0px" y="0px"
	 viewBox="0 0 300 300" style="enable-background:new 0 0 300 300;" xml:space="preserve">
<style type="text/css">
	.st0{fill:#28493C;}
	.st1{fill:none;}
</style>
<path class="st0" d="M133.9,119.4c-2.8,0-5.1-2.3-5.1-5.1c0-0.8,0.2-1.6,0.6-2.3c-0.3-0.1-0.7-0.1-1.1-0.1
	c-5.9,0-10.7,7.5-10.7,16.7s4.8,16.7,10.7,16.7s10.7-7.5,10.7-16.7c0-3.8-0.8-7.3-2.2-10.1C135.9,119,135,119.4,133.9,119.4z"/>
<path class="st0" d="M179.4,118.2c-0.9,0.7-2,1.2-3.2,1.2c-2.8,0-5.1-2.3-5.1-5.1c0-0.8,0.2-1.6,0.6-2.3c-0.2,0-0.4,0-0.6,0
	c-5.9,0-10.7,7.5-10.7,16.7s4.8,16.7,10.7,16.7s10.7-7.5,10.7-16.7C181.7,124.6,180.9,121,179.4,118.2z"/>
<path class="st1" d="M150,71.3c-38.7,0-61.8,17.1-74.4,31.4c-13.4,15.4-21.8,35.6-23,55h28.8c-0.1-1.5-0.2-3-0.3-4.6
	c-0.9-18.3,1.4-32.5,1.5-33.1c0.4-2.2,2.4-3.7,4.6-3.3c2.2,0.4,3.7,2.4,3.3,4.6c0,0.1-2.3,14.1-1.4,31.5c0.1,1.6,0.2,3.2,0.3,4.9
	h121.1c1.7-19.6-1-36.1-1-36.4c-0.4-2.2,1.1-4.2,3.3-4.6s4.2,1.1,4.6,3.3c0.1,0.6,2.4,14.8,1.5,33.1c-0.1,1.6-0.2,3.1-0.3,4.6h28.8
	c-1.2-19.4-9.6-39.7-23-55C211.8,88.4,188.7,71.3,150,71.3z"/>
<path class="st0" d="M217.4,120c-0.4-2.2-2.4-3.7-4.6-3.3c-2.2,0.4-3.7,2.4-3.3,4.6c0.1,0.3,2.7,16.8,1,36.4h8.1
	c0.1-1.5,0.2-3,0.3-4.6C219.8,134.8,217.5,120.6,217.4,120z"/>
<path class="st0" d="M90.5,121.3c0.4-2.2-1.1-4.2-3.3-4.6c-2.2-0.4-4.2,1.1-4.6,3.3c-0.1,0.6-2.4,14.8-1.5,33.1
	c0.1,1.6,0.2,3.1,0.3,4.6h8c-0.1-1.7-0.3-3.3-0.3-4.9C88.2,135.4,90.5,121.4,90.5,121.3z"/>
<path class="st0" d="M75.6,102.7c12.6-14.3,35.7-31.4,74.4-31.4s61.8,17.1,74.4,31.4c13.4,15.3,21.8,35.6,23,55h8
	c-1.2-21.3-10.3-43.5-25.1-60.3c-13.6-15.6-38.7-34.2-80.4-34.2S83.3,81.8,69.6,97.4c-14.7,16.8-23.9,39-25.1,60.3h8
	C53.8,138.3,62.2,118.1,75.6,102.7z"/>
<path class="st0" d="M281.7,160.2c-0.6-1.5-2.1-2.5-3.7-2.5h-22.5h-8h-28.8h-8.1H89.4h-8H52.6h-8h-19c-1.6,0-3.1,1-3.7,2.4
	s-0.4,3.1,0.7,4.3l59.2,66.1c0.8,0.8,1.9,1.3,3,1.3h122.9c1.1,0,2-0.4,2.7-1.1l70.3-66.1C281.9,163.5,282.3,161.7,281.7,160.2z
	 M206.1,223.8H86.6l-52-58.1h233.3L206.1,223.8z"/>
<path class="st0" d="M230,178c-1.6-1.6-4.1-1.5-5.7,0l-22,22.3c-1.6,1.6-1.5,4.1,0,5.7c0.8,0.8,1.8,1.2,2.8,1.2s2.1-0.4,2.8-1.2
	l22-22.3C231.6,182.1,231.6,179.5,230,178z"/>
</svg>
