<?xml version="1.0" encoding="utf-8"?>
<!-- Generator: Adobe Illustrator 25.2.3, SVG Export Plug-In . SVG Version: 6.00 Build 0)  -->
<svg version="1.1" id="Layer_1" xmlns="http://www.w3.org/2000/svg" xmlns:xlink="http://www.w3.org/1999/xlink" x="0px" y="0px"
	 viewBox="0 0 300 300" style="enable-background:new 0 0 300 300;" xml:space="preserve">
<style type="text/css">
	.st0{fill:#28493C;}
</style>
<g>
	<g>
		<path class="st0" d="M106.3,204.3c-0.9,0-1.8-0.3-2.5-0.9c-0.8-0.7-1.4-1.7-1.5-2.8l-2.7-29.4c-0.1-1,0.2-2,0.8-2.8l60.3-76.8
			c1.4-1.7,3.9-2,5.6-0.7l31.9,25c0.8,0.7,1.4,1.6,1.5,2.7s-0.2,2.1-0.8,2.9L138.2,199c-0.6,0.8-1.6,1.4-2.6,1.5l-28.7,3.8
			C106.7,204.3,106.5,204.3,106.3,204.3z M107.8,172.2l2.2,23.7l22.9-3l57.3-73l-25.6-20.1L107.8,172.2z"/>
	</g>
	<g>
		<path class="st0" d="M85.7,230.7c-0.9,0-1.7-0.3-2.5-0.9c-1.7-1.4-2-3.9-0.7-5.6l22-28c1.4-1.7,3.9-2,5.6-0.7
			c1.7,1.4,2,3.9,0.7,5.6l-22,28C88,230.2,86.9,230.7,85.7,230.7z"/>
	</g>
	<g>
		<path class="st0" d="M220.3,142.4c-0.9,0-1.7-0.3-2.5-0.9L136.9,78c-1.7-1.4-2-3.9-0.7-5.6c1.4-1.7,3.9-2,5.6-0.7l80.9,63.5
			c1.7,1.4,2,3.9,0.7,5.6C222.7,141.9,221.5,142.4,220.3,142.4z"/>
	</g>
	<g>
		<path class="st0" d="M156.5,134.5c-0.9,0-1.7-0.3-2.5-0.9l-13-10.2c-1.7-1.4-2-3.9-0.7-5.6c1.4-1.7,3.9-2,5.6-0.7l13.1,10.3
			c1.7,1.4,2,3.9,0.7,5.6C158.8,134,157.7,134.5,156.5,134.5z"/>
	</g>
	<g>
		<path class="st0" d="M143.2,151.4c-0.9,0-1.7-0.3-2.5-0.9l-13.1-10.3c-1.7-1.4-2-3.9-0.7-5.6c1.4-1.7,3.9-2,5.6-0.7l13.1,10.3
			c1.7,1.4,2,3.9,0.7,5.6C145.6,150.9,144.4,151.4,143.2,151.4z"/>
	</g>
	<g>
		<path class="st0" d="M129.9,168.4c-0.9,0-1.7-0.3-2.5-0.9l-13.1-10.3c-1.7-1.4-2-3.9-0.7-5.6c1.4-1.7,3.9-2,5.6-0.7l13.1,10.3
			c1.7,1.4,2,3.9,0.7,5.6C132.3,167.9,131.1,168.4,129.9,168.4z"/>
	</g>
	<g>
		<path class="st0" d="M218.4,113.1c-0.9,0-1.7-0.3-2.5-0.9l-50-39.3c-1.7-1.4-2-3.9-0.7-5.6c1.4-1.7,3.9-2,5.6-0.7l50,39.3
			c1.7,1.4,2,3.9,0.7,5.6C220.7,112.5,219.6,113.1,218.4,113.1z"/>
	</g>
	<g>
		<g>
			<path class="st0" d="M190.8,119.2c-0.9,0-1.7-0.3-2.5-0.9c-1.7-1.4-2-3.9-0.7-5.6l13.5-17.2c1.4-1.7,3.9-2,5.6-0.7
				c1.7,1.4,2,3.9,0.7,5.6l-13.5,17.2C193.1,118.7,192,119.2,190.8,119.2z"/>
		</g>
		<g>
			<path class="st0" d="M168.9,102.1c-0.9,0-1.7-0.3-2.5-0.9c-1.7-1.4-2-3.9-0.7-5.6l13.5-17.2c1.4-1.7,3.9-2,5.6-0.7
				c1.7,1.4,2,3.9,0.7,5.6L172,100.5C171.3,101.5,170.1,102.1,168.9,102.1z"/>
		</g>
	</g>
	<g>
		<polygon class="st0" points="152,174.9 120.2,149.9 103.7,170.9 106.3,200.3 135,196.6 		"/>
	</g>
</g>
</svg>
